<svg width="1256" height="2011" viewBox="0 0 1256 2011" fill="none" xmlns="http://www.w3.org/2000/svg">
<path d="M0 1675.7H251.2M251.2 1675.7V1759.45M251.2 1675.7H502.4M251.2 1675.7V1591.95M251.2 1759.45H0L83.7333 1759.45M251.2 1759.45V1843.2M251.2 1759.45H502.4M251.2 1759.45V1508.2M251.2 1759.45L167.467 1759.45M251.2 1759.45L251.2 2010.7M251.2 1759.45L334.933 1759.45M251.2 1843.2H0M251.2 1843.2V1926.95M251.2 1843.2H502.4M251.2 1926.95H0M251.2 1926.95H502.4M502.4 1675.7V1759.45M502.4 1675.7H753.6M502.4 1675.7V1591.95M502.4 1759.45V1843.2M502.4 1759.45H753.6M502.4 1759.45V1508.2M502.4 1759.45L418.667 1759.45M502.4 1759.45L502.4 2010.7M502.4 1759.45L586.133 1759.45M502.4 1843.2V1926.95M502.4 1843.2H753.6M502.4 1926.95H753.6M753.6 1675.7V1759.45M753.6 1675.7H1004.8M753.6 1675.7V1591.95M753.6 1759.45V1843.2M753.6 1759.45H1004.8M753.6 1759.45V1508.2M753.6 1759.45L669.867 1759.45M753.6 1759.45L753.6 2010.7M753.6 1759.45H837.333M753.6 1843.2V1926.95M753.6 1843.2H1004.8M753.6 1926.95H1004.8M1004.8 1675.7V1759.45M1004.8 1675.7H1256M1004.8 1675.7V1591.95M1004.8 1759.45V1843.2M1004.8 1759.45H1256H1172.27M1004.8 1759.45V1508.2M1004.8 1759.45H921.067M1004.8 1759.45V2010.7M1004.8 1759.45H1088.53M1004.8 1843.2V1926.95M1004.8 1843.2H1256M1004.8 1926.95H1256M0 1424.45H251.2M251.2 1424.45V1508.2M251.2 1424.45H502.4M251.2 1424.45V1340.7M251.2 1508.2H0L83.7333 1508.2M251.2 1508.2V1591.95M251.2 1508.2H502.4M251.2 1508.2V1256.95M251.2 1508.2L167.467 1508.2M251.2 1508.2L334.933 1508.2M251.2 1591.95H0M251.2 1591.95H502.4M502.4 1424.45V1508.2M502.4 1424.45H753.6M502.4 1424.45V1340.7M502.4 1508.2V1591.95M502.4 1508.2H753.6M502.4 1508.2V1256.95M502.4 1508.2L418.667 1508.2M502.4 1508.2L586.133 1508.2M502.4 1591.95H753.6M753.6 1424.45V1508.2M753.6 1424.45H1004.8M753.6 1424.45V1340.7M753.6 1508.2V1591.95M753.6 1508.2H1004.8M753.6 1508.2V1256.95M753.6 1508.2L669.867 1508.2M753.6 1508.2H837.333M753.6 1591.95H1004.8M1004.8 1424.45V1508.2M1004.8 1424.45H1256M1004.8 1424.45V1340.7M1004.8 1508.2V1591.95M1004.8 1508.2H1256H1172.27M1004.8 1508.2V1256.95M1004.8 1508.2H921.067M1004.8 1508.2H1088.53M1004.8 1591.95H1256M0 1173.2H251.2M251.2 1173.2V1256.95M251.2 1173.2H502.4M251.2 1173.2V1089.45M251.2 1256.95H0H83.7333M251.2 1256.95V1340.7M251.2 1256.95H502.4M251.2 1256.95V1005.7M251.2 1256.95H167.467M251.2 1256.95H334.933M251.2 1340.7H0M251.2 1340.7H502.4M502.4 1173.2V1256.95M502.4 1173.2H753.6M502.4 1173.2V1089.45M502.4 1256.95V1340.7M502.4 1256.95H753.6M502.4 1256.95V1005.7M502.4 1256.95H418.667M502.4 1256.95H586.133M502.4 1340.7H753.6M753.6 1173.2V1256.95M753.6 1173.2H1004.8M753.6 1173.2V1089.45M753.6 1256.95V1340.7M753.6 1256.95H1004.8M753.6 1256.95V1005.7M753.6 1256.95H669.867M753.6 1256.95H837.333M753.6 1340.7H1004.8M1004.8 1173.2V1256.95M1004.8 1173.2H1256M1004.8 1173.2V1089.45M1004.8 1256.95V1340.7M1004.8 1256.95H1256H1172.27M1004.8 1256.95V1005.7M1004.8 1256.95H921.067M1004.8 1256.95H1088.53M1004.8 1340.7H1256M0 921.946H251.2M251.2 921.946V1005.7M251.2 921.946H502.4M251.2 921.946V838.196M251.2 1005.7H0H83.7333M251.2 1005.7V1089.45M251.2 1005.7H502.4M251.2 1005.7V754.446M251.2 1005.7H167.467M251.2 1005.7H334.933M251.2 1089.45H0M251.2 1089.45H502.4M502.4 921.946V1005.7M502.4 921.946H753.6M502.4 921.946V838.196M502.4 1005.7V1089.45M502.4 1005.7H753.6M502.4 1005.7V754.446M502.4 1005.7H418.667M502.4 1005.7H586.133M502.4 1089.45H753.6M753.6 921.946V1005.7M753.6 921.946H1004.8M753.6 921.946V838.196M753.6 1005.7V1089.45M753.6 1005.7H1004.8M753.6 1005.7V754.446M753.6 1005.7H669.867M753.6 1005.7H837.333M753.6 1089.45H1004.8M1004.8 921.946V1005.7M1004.8 921.946H1256M1004.8 921.946V838.196M1004.8 1005.7V1089.45M1004.8 1005.7H1256H1172.27M1004.8 1005.7V754.446M1004.8 1005.7H921.067M1004.8 1005.7H1088.53M1004.8 1089.45H1256M0 670.696H251.2M251.2 670.696V754.446M251.2 670.696H502.4M251.2 670.696V586.946M251.2 754.446H0L83.7333 754.446M251.2 754.446V838.196M251.2 754.446H502.4M251.2 754.446V503.196M251.2 754.446L167.467 754.446M251.2 754.446L334.933 754.446M251.2 838.196H0M251.2 838.196H502.4M502.4 670.696V754.446M502.4 670.696H753.6M502.4 670.696V586.946M502.4 754.446V838.196M502.4 754.446H753.6M502.4 754.446V503.196M502.4 754.446L418.667 754.446M502.4 754.446L586.133 754.446M502.4 838.196H753.6M753.6 670.696V754.446M753.6 670.696H1004.8M753.6 670.696V586.946M753.6 754.446V838.196M753.6 754.446H1004.8M753.6 754.446V503.196M753.6 754.446L669.867 754.446M753.6 754.446L837.333 754.446M753.6 838.196H1004.8M1004.8 670.696V754.446M1004.8 670.696H1256M1004.8 670.696V586.946M1004.8 754.446V838.196M1004.8 754.446H1256L1172.27 754.446M1004.8 754.446V503.196M1004.8 754.446L921.067 754.446M1004.8 754.446L1088.53 754.446M1004.8 838.196H1256M0 419.446H251.2M251.2 419.446V503.196M251.2 419.446H502.4M251.2 419.446V335.696M251.2 503.196H0L83.7333 503.196M251.2 503.196V586.946M251.2 503.196H502.4M251.2 503.196V251.946M251.2 503.196L167.467 503.196M251.2 503.196L334.933 503.196M251.2 586.946H0M251.2 586.946H502.4M502.4 419.446V503.196M502.4 419.446H753.6M502.4 419.446V335.696M502.4 503.196V586.946M502.4 503.196H753.6M502.4 503.196V251.946M502.4 503.196L418.667 503.196M502.4 503.196L586.133 503.196M502.4 586.946H753.6M753.6 419.446V503.196M753.6 419.446H1004.8M753.6 419.446V335.696M753.6 503.196V586.946M753.6 503.196H1004.8M753.6 503.196V251.946M753.6 503.196L669.867 503.196M753.6 503.196L837.333 503.196M753.6 586.946H1004.8M1004.8 419.446V503.196M1004.8 419.446H1256M1004.8 419.446V335.696M1004.8 503.196V586.946M1004.8 503.196H1256L1172.27 503.196M1004.8 503.196V251.946M1004.8 503.196L921.067 503.196M1004.8 503.196L1088.53 503.196M1004.8 586.946H1256M0 168.196H251.2M251.2 168.196V251.946M251.2 168.196H502.4M251.2 168.196V84.4458M251.2 251.946H0L83.7333 251.946M251.2 251.946V335.696M251.2 251.946H502.4M251.2 251.946V0.695801V84.4458M251.2 251.946L167.467 251.946M251.2 251.946L334.933 251.946M251.2 335.696H0M251.2 335.696H502.4M502.4 168.196V251.946M502.4 168.196H753.6M502.4 168.196V84.4458M502.4 251.946V335.696M502.4 251.946H753.6M502.4 251.946V0.695801V84.4458M502.4 251.946L418.667 251.946M502.4 251.946L586.133 251.946M502.4 335.696H753.6M753.6 168.196V251.946M753.6 168.196H1004.8M753.6 168.196V84.4458M753.6 251.946V335.696M753.6 251.946H1004.8M753.6 251.946V0.695801V84.4458M753.6 251.946L669.867 251.946M753.6 251.946L837.333 251.946M753.6 335.696H1004.8M1004.8 168.196V251.946M1004.8 168.196H1256M1004.8 168.196V84.4458M1004.8 251.946V335.696M1004.8 251.946H1256L1172.27 251.946M1004.8 251.946V0.695801V84.4458M1004.8 251.946L921.067 251.946M1004.8 251.946L1088.53 251.946M1004.8 335.696H1256M251.2 84.4458H0M251.2 84.4458H502.4M502.4 84.4458H753.6M753.6 84.4458H1004.8M1004.8 84.4458H1256M167.467 251.946L167.467 0.695843M167.467 251.946H83.7333M167.467 251.946L167.467 503.196M83.7333 251.946L83.7333 0.695836M83.7333 251.946L83.7333 503.196M167.467 503.196H83.7333M167.467 503.196V754.446M83.7333 503.196L83.7333 754.446M167.467 754.446H83.7333M167.467 754.446L167.467 1005.7M83.7333 754.446L83.7333 1005.7M167.467 1005.7H83.7333M167.467 1005.7L167.467 1256.95M83.7333 1005.7L83.7333 1256.95M167.467 1256.95H83.7333M167.467 1256.95L167.467 1508.2M83.7333 1256.95L83.7333 1508.2M418.667 251.946V0.69585M418.667 251.946H334.933M418.667 251.946L418.667 503.196M334.933 251.946V0.69585M334.933 251.946L334.933 503.196M418.667 503.196H334.933M418.667 503.196V754.446M334.933 503.196V754.446M418.667 754.446H334.933M418.667 754.446L418.667 1005.7M334.933 754.446L334.933 1005.7M418.667 1005.7H334.933M418.667 1005.7V1256.95M334.933 1005.7V1256.95M418.667 1256.95H334.933M418.667 1256.95L418.667 1508.2M334.933 1256.95L334.933 1508.2M669.867 251.946V0.695865M669.867 251.946H586.133M669.867 251.946V503.196M586.133 251.946V0.695858M586.133 251.946V503.196M669.867 503.196L586.133 503.196M669.867 503.196L669.867 754.446M586.133 503.196L586.133 754.446M669.867 754.446L586.133 754.446M669.867 754.446V1005.7M586.133 754.446V1005.7M669.867 1005.7H586.133M669.867 1005.7V1256.95M586.133 1005.7V1256.95M669.867 1256.95H586.133M669.867 1256.95L669.867 1508.2M586.133 1256.95L586.133 1508.2M921.067 251.946V0.695872M921.067 251.946H837.333M921.067 251.946V503.196M837.333 251.946V0.695872M837.333 251.946V503.196M921.067 503.196H837.333M921.067 503.196L921.067 754.446M837.333 503.196L837.333 754.446M921.067 754.446H837.333M921.067 754.446V1005.7M837.333 754.446V1005.7M921.067 1005.7H837.333M921.067 1005.7V1256.95M837.333 1005.7V1256.95M921.067 1256.95H837.333M921.067 1256.95L921.067 1508.2M837.333 1256.95L837.333 1508.2M1172.27 251.946V0.695886M1172.27 251.946H1088.53M1172.27 251.946V503.196M1088.53 251.946V0.695879M1088.53 251.946V503.196M1172.27 503.196H1088.53M1172.27 503.196V754.446M1088.53 503.196V754.446M1172.27 754.446H1088.53M1172.27 754.446V1005.7M1088.53 754.446V1005.7M1172.27 1005.7H1088.53M1172.27 1005.7V1256.95M1088.53 1005.7V1256.95M1172.27 1256.95H1088.53M1172.27 1256.95V1508.2M1088.53 1256.95V1508.2M167.467 1508.2H83.7333M167.467 1508.2L167.467 1759.45M83.7333 1508.2L83.7333 1759.45M167.467 1759.45H83.7333M167.467 1759.45V2010.7M83.7333 1759.45L83.7333 2010.7M418.667 1508.2H334.933M418.667 1508.2L418.667 1759.45M334.933 1508.2L334.933 1759.45M418.667 1759.45H334.933M418.667 1759.45V2010.7M334.933 1759.45V2010.7M669.867 1508.2H586.133M669.867 1508.2V1759.45M586.133 1508.2V1759.45M669.867 1759.45H586.133M669.867 1759.45L669.867 2010.7M586.133 1759.45L586.133 2010.7M921.067 1508.2H837.333M921.067 1508.2V1759.45M837.333 1508.2V1759.45M921.067 1759.45H837.333M921.067 1759.45L921.067 2010.7M837.333 1759.45L837.333 2010.7M1172.27 1508.2H1088.53M1172.27 1508.2V1759.45M1088.53 1508.2V1759.45M1172.27 1759.45H1088.53M1172.27 1759.45V2010.7M1088.53 1759.45V2010.7" stroke="url(#paint0_radial_17_107)" stroke-opacity="0.5"/>
<defs>
<radialGradient id="paint0_radial_17_107" cx="0" cy="0" r="1" gradientUnits="userSpaceOnUse" gradientTransform="translate(591.716 952.654) rotate(1.10193) scale(774.211 1459.26)">
<stop stop-color="white"/>
<stop offset="1" stop-opacity="0"/>
</radialGradient>
</defs>
</svg>
