<svg width="1968" height="3707" viewBox="0 0 1968 3707" fill="none" xmlns="http://www.w3.org/2000/svg">
<path d="M0.5 919.5C808 310 1290.5 1321 1968 0V3707H0.5V919.5Z" fill="url(#paint0_linear_204_47)"/>
<path d="M1203.2 721.047C1200.19 727.564 1203.03 735.289 1209.55 738.302L1315.75 787.389C1322.27 790.401 1329.99 787.56 1333.01 781.043C1336.02 774.526 1333.18 766.8 1326.66 763.788L1232.25 720.155L1275.89 625.751C1278.9 619.234 1276.06 611.508 1269.54 608.496C1263.02 605.484 1255.3 608.325 1252.29 614.842L1203.2 721.047ZM1193.5 270.002L1191.37 282.826C1397.78 317.06 1518.49 355.623 1579.88 394.805C1610.47 414.334 1624.43 432.815 1628.58 449.19C1632.62 465.115 1628.15 482.238 1614.28 501.211C1600.32 520.318 1577.73 539.961 1548.54 559.661C1519.48 579.269 1484.6 598.473 1446.73 616.912C1370.99 653.795 1284.3 687.16 1210.51 714.3L1215 726.501L1219.49 738.702C1293.4 711.515 1381.13 677.779 1458.12 640.288C1496.61 621.54 1532.67 601.738 1563.08 581.212C1593.36 560.775 1618.76 539.152 1635.28 516.55C1651.89 493.813 1660.37 468.785 1653.78 442.803C1647.31 417.27 1627.08 394.089 1593.87 372.888C1527.62 330.609 1402.22 291.442 1195.63 257.177L1193.5 270.002Z" fill="white"/>
<defs>
<linearGradient id="paint0_linear_204_47" x1="984.25" y1="0" x2="984.25" y2="3707" gradientUnits="userSpaceOnUse">
<stop stop-color="#98A5FF"/>
</linearGradient>
</defs>
</svg>
