<svg width="590" height="227" viewBox="0 0 590 227" fill="none" xmlns="http://www.w3.org/2000/svg">
<path d="M6.38477 73.5C6.38477 62.3 17.7848 54.4 33.9848 54.4C49.0848 54.4 60.9848 60.6 60.9848 69.2C60.9848 79.8 47.5848 81.3 36.5848 75.2V74.2C45.0848 69.2 44.8848 56 32.9848 56C27.0848 56 22.3848 59.7 22.3848 66C22.3848 79.9 62.8848 80.1 62.9848 103.4C62.9848 116.8 47.6848 122.6 34.5848 122.6C18.3848 122.6 4.38477 117.6 4.38477 105.2C4.38477 98.7 9.08477 94.6 16.4848 94.6C21.0848 94.6 25.4848 97.2 27.4848 101.4V102.4C25.4848 103.6 23.6848 106.4 23.6848 110.2C23.6848 116.3 27.7848 121 35.4848 121C41.6848 121 45.9848 117.2 45.9848 111.7C45.9848 97.2 6.48477 96 6.38477 73.5Z" fill="white"/>
<path d="M130.686 101.5C126.386 113.5 117.186 122.6 101.386 122.6C83.7863 122.6 70.9863 109 70.9863 89.7C70.9863 69.4 85.9863 54.4 106.386 54.4C121.086 54.4 129.586 64 129.586 75.5C129.586 89.2 118.986 94.4 108.486 94.4C101.486 94.4 94.9863 91.8 90.9863 88.9C91.4863 107.1 100.786 114 110.586 114C120.386 114 126.286 108 129.686 101L130.686 101.5ZM90.9863 87.5C113.786 85.9 116.586 56 106.086 56C97.1863 56 90.9863 70.4 90.9863 87.5Z" fill="white"/>
<path d="M200.686 133.5C200.686 136.7 201.686 139.5 207.686 139.5V141H174.686V139.5C180.686 139.5 181.686 136.7 181.686 133.5V102.9C178.486 115.3 171.186 122.6 161.986 122.6C147.986 122.6 137.686 107.6 137.686 88.5C137.686 69.4 147.786 54.4 161.286 54.4C170.986 54.4 178.486 61.8 181.686 74.1V66.1C187.386 64.7 194.886 62.8 198.686 56H200.686V133.5ZM157.686 88.5C157.686 103.9 162.986 116 169.686 116C176.386 116 181.586 104.1 181.686 88.8V88.2C181.586 72.9 176.386 61 169.686 61C162.986 61 157.686 73.1 157.686 88.5Z" fill="white"/>
<path d="M277.967 113.5C277.967 116.7 278.967 119.5 284.967 119.5V121H258.967V106.6C256.367 116.3 248.867 122.6 238.467 122.6C226.167 122.6 218.967 112.8 218.967 97.2V72.1C218.967 68.5 218.467 66.4 211.267 66.4V64.9C224.967 63.9 231.267 60.2 235.967 56H237.967V99.8C237.967 108.6 241.567 114.2 247.267 114.2C254.267 114.2 258.967 108 258.967 96.9V72.1C258.967 68.5 258.467 66.4 251.267 66.4V64.9C264.967 63.9 271.267 60.2 275.967 56H277.967V113.5Z" fill="white"/>
<path d="M350.511 101.5C346.211 113.5 337.011 122.6 321.211 122.6C303.611 122.6 290.811 109 290.811 89.7C290.811 69.4 305.811 54.4 326.211 54.4C340.911 54.4 349.411 64 349.411 75.5C349.411 89.2 338.811 94.4 328.311 94.4C321.311 94.4 314.811 91.8 310.811 88.9C311.311 107.1 320.611 114 330.411 114C340.211 114 346.111 108 349.511 101L350.511 101.5ZM310.811 87.5C333.611 85.9 336.411 56 325.911 56C317.011 56 310.811 70.4 310.811 87.5Z" fill="white"/>
<path d="M356.01 121V119.5C362.01 119.5 363.01 116.7 363.01 113.5V72.1C363.01 68.5 362.51 66.4 355.31 66.4V64.9C369.01 63.9 375.31 60.2 380.01 56H382.01V70.4C384.61 60.7 391.91 54.4 401.91 54.4C414.81 54.4 422.01 64.2 422.01 79.8V113.5C422.01 116.7 423.01 119.5 429.01 119.5V121H396.01V119.5C402.01 119.5 403.01 116.7 403.01 113.5V77.2C403.01 68 399.61 62.8 393.41 62.8C386.71 62.8 382.01 69 382.01 80.1V113.5C382.01 116.7 383.01 119.5 389.01 119.5V121H356.01Z" fill="white"/>
<path d="M474.854 107.1C468.854 119 460.154 122.6 453.354 122.6C445.054 122.6 438.354 117 438.354 103.6V57.6H432.854V56C442.854 55.6 451.854 48.9 455.754 36H457.354V56H472.054V57.6H457.354V104.4C457.354 112.7 459.254 115.5 462.254 115.5C466.254 115.5 469.754 113.4 474.054 106L474.854 107.1Z" fill="white"/>
<path d="M479.838 121V119.5C485.838 119.5 486.838 116.7 486.838 113.5V72.1C486.838 68.5 486.338 66.4 479.138 66.4V64.9C492.838 63.9 499.138 60.2 503.838 56H505.838V113.5C505.838 116.7 506.838 119.5 512.838 119.5V121H479.838ZM496.338 44.4C490.438 44.4 485.838 40.4 485.838 35.4C485.838 30.4 490.438 26.4 496.338 26.4C502.238 26.4 506.838 30.4 506.838 35.4C506.838 40.4 502.238 44.4 496.338 44.4Z" fill="white"/>
<path d="M577.843 113.5C577.843 116.7 578.843 119.5 584.843 119.5V121H558.843V113.4C555.943 117.7 549.143 122.6 538.943 122.6C526.443 122.6 517.743 115.5 517.643 104.4C517.543 78.7 558.543 84.4 558.843 73.4C558.743 62.7 555.043 56 549.243 56C544.043 56 540.843 60.8 540.843 68.4C540.843 71.7 541.543 74.7 543.543 76.4V77.4C536.743 82.2 521.943 82.6 521.943 70.6C521.943 60.6 532.343 54.4 548.843 54.4C566.643 54.4 577.843 64.3 577.843 80.1V113.5ZM537.743 103C537.743 111.2 542.343 116.3 549.243 116.3C553.643 116.3 557.743 113.7 558.843 110.3V77.2C554.443 84.2 537.643 85.2 537.743 103Z" fill="white"/>
<path d="M421.127 156.5C421.66 155.7 422.094 155.233 422.427 155.1C422.76 154.967 422.994 155 423.127 155.2C423.327 155.4 423.394 155.733 423.327 156.2C423.327 156.6 423.227 157 423.027 157.4C422.627 158.133 422.06 159.267 421.327 160.8C420.594 162.267 419.76 163.867 418.827 165.6C417.894 167.267 416.894 168.967 415.827 170.7C414.76 172.367 413.66 173.767 412.527 174.9C411.727 175.767 410.86 176.3 409.927 176.5C408.994 176.7 408.127 176.667 407.327 176.4C406.594 176.067 405.96 175.533 405.427 174.8C404.894 174 404.594 173.033 404.527 171.9C404.394 170.5 404.46 169.067 404.727 167.6C404.994 166.133 405.194 165.033 405.327 164.3C405.594 163.167 405.927 161.767 406.327 160.1C406.727 158.367 407.26 156.1 407.927 153.3C408.26 151.833 408.56 150.7 408.827 149.9C409.094 149.1 409.16 148.633 409.027 148.5C408.96 148.367 408.66 148.533 408.127 149C407.594 149.467 406.727 150.233 405.527 151.3C403.327 153.233 401.294 155.367 399.427 157.7C397.627 160.033 395.694 162.233 393.627 164.3C393.027 165.033 392.36 165.567 391.627 165.9C390.894 166.167 390.227 166.267 389.627 166.2C389.027 166.067 388.527 165.733 388.127 165.2C387.727 164.667 387.56 163.933 387.627 163C387.76 161.6 387.894 160.3 388.027 159.1C388.227 157.833 388.427 156.633 388.627 155.5C388.76 154.7 388.694 154.3 388.427 154.3C388.227 154.233 387.66 154.867 386.727 156.2C385.66 157.733 384.56 159.333 383.427 161C382.294 162.667 381.194 164.3 380.127 165.9C379.127 167.433 378.16 168.9 377.227 170.3C376.36 171.633 375.627 172.733 375.027 173.6C374.627 174.2 374.26 174.567 373.927 174.7C373.66 174.833 373.327 174.9 372.927 174.9C371.727 174.9 370.86 174.4 370.327 173.4C369.794 172.333 369.494 171.133 369.427 169.8C369.294 168.4 369.294 167.033 369.427 165.7C369.56 164.367 369.694 163.4 369.827 162.8C370.427 160.267 371.127 157.633 371.927 154.9C372.727 152.167 373.694 149.7 374.827 147.5C375.36 146.367 376.194 145.567 377.327 145.1C378.46 144.633 379.627 144.733 380.827 145.4C381.16 145.6 381.26 146 381.127 146.6C380.994 147.133 380.76 147.7 380.427 148.3C379.96 149.1 379.427 150.233 378.827 151.7C378.294 153.167 377.727 154.733 377.127 156.4C376.527 158.067 375.96 159.767 375.427 161.5C374.894 163.233 374.46 164.8 374.127 166.2C373.794 167.533 373.56 168.633 373.427 169.5C373.36 170.3 373.494 170.633 373.827 170.5C374.16 170.367 374.694 169.8 375.427 168.8C376.16 167.8 376.994 166.6 377.927 165.2C378.86 163.8 379.827 162.3 380.827 160.7C381.894 159.033 382.927 157.467 383.927 156C384.994 154.533 385.96 153.3 386.827 152.3C387.76 151.233 388.56 150.567 389.227 150.3C389.694 150.1 390.227 149.933 390.827 149.8C391.427 149.667 391.96 149.633 392.427 149.7C392.96 149.7 393.36 149.867 393.627 150.2C393.96 150.467 394.094 150.933 394.027 151.6C393.827 153.133 393.594 154.833 393.327 156.7C393.06 158.5 392.827 160.267 392.627 162C394.827 159.667 396.827 157.3 398.627 154.9C400.494 152.5 402.594 150.333 404.927 148.4C405.394 148 405.927 147.567 406.527 147.1C407.127 146.567 407.76 146.1 408.427 145.7C409.16 145.3 409.86 145 410.527 144.8C411.26 144.6 411.994 144.567 412.727 144.7C413.927 144.967 414.66 145.567 414.927 146.5C415.26 147.433 415.327 148.467 415.127 149.6C414.86 150.933 414.527 152.4 414.127 154C413.794 155.533 413.427 157.1 413.027 158.7C412.694 160.3 412.36 161.867 412.027 163.4C411.694 164.933 411.394 166.333 411.127 167.6C410.994 168.333 410.827 169.067 410.627 169.8C410.494 170.533 410.46 171.1 410.527 171.5C410.66 171.833 410.927 171.9 411.327 171.7C411.727 171.433 412.427 170.7 413.427 169.5C413.96 168.767 414.56 167.867 415.227 166.8C415.894 165.667 416.56 164.5 417.227 163.3C417.96 162.033 418.66 160.833 419.327 159.7C419.994 158.5 420.594 157.433 421.127 156.5ZM447.253 158C445.986 160.8 444.619 163.433 443.153 165.9C441.686 168.3 440.119 170.733 438.453 173.2C437.919 173.933 437.319 174.6 436.653 175.2C435.986 175.8 435.253 176.133 434.453 176.2C433.119 176.2 432.086 175.767 431.353 174.9C430.619 174.033 430.053 173 429.653 171.8C429.319 170.533 429.119 169.267 429.053 168C429.053 166.667 429.086 165.567 429.153 164.7C428.286 166.033 427.453 167.533 426.653 169.2C425.853 170.867 424.986 172.267 424.053 173.4C423.453 174.133 422.786 174.7 422.053 175.1C421.386 175.433 420.653 175.433 419.853 175.1C418.119 174.3 417.253 172.8 417.253 170.6C417.119 168 417.353 165.367 417.953 162.7C418.553 159.967 419.553 157.5 420.953 155.3C422.286 153.1 424.019 151.333 426.153 150C428.286 148.6 430.819 147.933 433.753 148C434.219 147.467 434.653 146.933 435.053 146.4C435.453 145.867 435.853 145.333 436.253 144.8C436.853 144 437.386 143.533 437.853 143.4C438.319 143.2 438.686 143.233 438.953 143.5C439.219 143.767 439.353 144.2 439.353 144.8C439.419 145.4 439.319 146.033 439.053 146.7C438.319 148.433 437.553 150.4 436.753 152.6C436.019 154.733 435.386 156.9 434.853 159.1C434.319 161.3 433.953 163.4 433.753 165.4C433.553 167.333 433.686 168.967 434.153 170.3C434.553 171.7 435.353 171.967 436.553 171.1C437.419 170.367 438.286 169.433 439.153 168.3C440.019 167.1 440.853 165.833 441.653 164.5C442.453 163.167 443.219 161.833 443.953 160.5C444.686 159.167 445.319 158 445.853 157C446.386 156 446.819 155.367 447.153 155.1C447.486 154.767 447.686 154.7 447.753 154.9C447.886 155.1 447.886 155.5 447.753 156.1C447.686 156.633 447.519 157.267 447.253 158ZM421.853 169.1C422.186 170.167 422.753 170.167 423.553 169.1C424.419 168.033 425.353 166.467 426.353 164.4C427.419 162.333 428.486 160.033 429.553 157.5C430.619 154.967 431.553 152.767 432.353 150.9C430.819 151.033 429.386 151.733 428.053 153C426.719 154.267 425.586 155.8 424.653 157.6C423.719 159.4 422.986 161.333 422.453 163.4C421.919 165.467 421.719 167.367 421.853 169.1ZM462.869 158.1C462.336 158.767 461.636 159.533 460.769 160.4C459.969 161.2 459.136 162 458.269 162.8C457.402 163.6 456.536 164.367 455.669 165.1C454.869 165.833 454.236 166.433 453.769 166.9C454.102 171.433 453.569 175.933 452.169 180.4C450.769 184.8 448.469 188.367 445.269 191.1C443.202 192.833 441.269 193.867 439.469 194.2C437.669 194.6 436.236 194.433 435.169 193.7C434.102 192.967 433.536 191.767 433.469 190.1C433.402 188.433 434.136 186.4 435.669 184C436.469 182.733 437.369 181.433 438.369 180.1C439.369 178.767 440.369 177.5 441.369 176.3C442.369 175.1 443.302 174.033 444.169 173.1C444.969 172.1 445.602 171.367 446.069 170.9C447.202 169.833 447.902 168.733 448.169 167.6C448.502 166.467 448.569 165.333 448.369 164.2C448.236 163.067 447.902 161.933 447.369 160.8C446.902 159.667 446.402 158.567 445.869 157.5C445.336 156.367 444.902 155.267 444.569 154.2C444.169 153.133 444.002 152.067 444.069 151C444.136 149.8 444.569 148.733 445.369 147.8C446.169 146.8 447.136 146 448.269 145.4C449.469 144.733 450.736 144.3 452.069 144.1C453.469 143.833 454.802 143.8 456.069 144C457.202 144.267 457.969 144.667 458.369 145.2C458.769 145.733 458.902 146.267 458.769 146.8C458.636 147.267 458.302 147.6 457.769 147.8C457.302 148 456.736 147.867 456.069 147.4C455.136 146.733 454.236 146.433 453.369 146.5C452.569 146.5 451.836 146.733 451.169 147.2C450.569 147.6 450.102 148.167 449.769 148.9C449.436 149.633 449.336 150.4 449.469 151.2C449.602 152.4 449.936 153.633 450.469 154.9C451.002 156.1 451.536 157.367 452.069 158.7C452.402 159.567 452.669 160.467 452.869 161.4C453.069 162.333 453.236 163.267 453.369 164.2C453.836 163.8 454.402 163.3 455.069 162.7C455.802 162.1 456.502 161.467 457.169 160.8C457.902 160.133 458.569 159.467 459.169 158.8C459.836 158.067 460.369 157.367 460.769 156.7C461.236 155.967 461.636 155.567 461.969 155.5C462.369 155.367 462.669 155.433 462.869 155.7C463.136 155.967 463.269 156.333 463.269 156.8C463.269 157.267 463.136 157.7 462.869 158.1ZM448.269 171.8C447.536 172.6 446.702 173.567 445.769 174.7C444.836 175.767 443.869 176.9 442.869 178.1C441.869 179.3 440.936 180.5 440.069 181.7C439.136 182.833 438.369 183.867 437.769 184.8C436.902 186.267 436.402 187.533 436.269 188.6C436.136 189.733 436.269 190.467 436.669 190.8C437.336 191.4 438.336 191.233 439.669 190.3C440.936 189.367 442.202 187.967 443.469 186.1C444.669 184.233 445.736 182.033 446.669 179.5C447.669 176.967 448.202 174.4 448.269 171.8ZM478.201 158.1C477.668 158.767 476.968 159.533 476.101 160.4C475.301 161.2 474.468 162 473.601 162.8C472.735 163.6 471.868 164.367 471.001 165.1C470.201 165.833 469.568 166.433 469.101 166.9C469.435 171.433 468.901 175.933 467.501 180.4C466.101 184.8 463.801 188.367 460.601 191.1C458.535 192.833 456.601 193.867 454.801 194.2C453.001 194.6 451.568 194.433 450.501 193.7C449.435 192.967 448.868 191.767 448.801 190.1C448.735 188.433 449.468 186.4 451.001 184C451.801 182.733 452.701 181.433 453.701 180.1C454.701 178.767 455.701 177.5 456.701 176.3C457.701 175.1 458.635 174.033 459.501 173.1C460.301 172.1 460.935 171.367 461.401 170.9C462.535 169.833 463.235 168.733 463.501 167.6C463.835 166.467 463.901 165.333 463.701 164.2C463.568 163.067 463.235 161.933 462.701 160.8C462.235 159.667 461.735 158.567 461.201 157.5C460.668 156.367 460.235 155.267 459.901 154.2C459.501 153.133 459.335 152.067 459.401 151C459.468 149.8 459.901 148.733 460.701 147.8C461.501 146.8 462.468 146 463.601 145.4C464.801 144.733 466.068 144.3 467.401 144.1C468.801 143.833 470.135 143.8 471.401 144C472.535 144.267 473.301 144.667 473.701 145.2C474.101 145.733 474.235 146.267 474.101 146.8C473.968 147.267 473.635 147.6 473.101 147.8C472.635 148 472.068 147.867 471.401 147.4C470.468 146.733 469.568 146.433 468.701 146.5C467.901 146.5 467.168 146.733 466.501 147.2C465.901 147.6 465.435 148.167 465.101 148.9C464.768 149.633 464.668 150.4 464.801 151.2C464.935 152.4 465.268 153.633 465.801 154.9C466.335 156.1 466.868 157.367 467.401 158.7C467.735 159.567 468.001 160.467 468.201 161.4C468.401 162.333 468.568 163.267 468.701 164.2C469.168 163.8 469.735 163.3 470.401 162.7C471.135 162.1 471.835 161.467 472.501 160.8C473.235 160.133 473.901 159.467 474.501 158.8C475.168 158.067 475.701 157.367 476.101 156.7C476.568 155.967 476.968 155.567 477.301 155.5C477.701 155.367 478.001 155.433 478.201 155.7C478.468 155.967 478.601 156.333 478.601 156.8C478.601 157.267 478.468 157.7 478.201 158.1ZM463.601 171.8C462.868 172.6 462.035 173.567 461.101 174.7C460.168 175.767 459.201 176.9 458.201 178.1C457.201 179.3 456.268 180.5 455.401 181.7C454.468 182.833 453.701 183.867 453.101 184.8C452.235 186.267 451.735 187.533 451.601 188.6C451.468 189.733 451.601 190.467 452.001 190.8C452.668 191.4 453.668 191.233 455.001 190.3C456.268 189.367 457.535 187.967 458.801 186.1C460.001 184.233 461.068 182.033 462.001 179.5C463.001 176.967 463.535 174.4 463.601 171.8ZM489.533 157C490.2 155.667 490.8 155.1 491.333 155.3C491.933 155.5 492.033 156.133 491.633 157.2C490.767 159.267 489.6 161.533 488.133 164C486.667 166.4 485.233 168.6 483.833 170.6C483.433 171.133 482.967 171.767 482.433 172.5C481.967 173.167 481.433 173.8 480.833 174.4C480.233 175 479.6 175.433 478.933 175.7C478.267 175.967 477.567 175.867 476.833 175.4C475.5 174.667 474.733 173.533 474.533 172C474.267 170.467 474.2 168.933 474.333 167.4C474.533 163.933 474.933 160.567 475.533 157.3C476.133 154.033 476.867 150.8 477.733 147.6C478.067 146.733 478.433 146 478.833 145.4C479.3 144.867 479.833 144.567 480.433 144.5C481.1 144.367 481.7 144.4 482.233 144.6C482.767 144.8 483.2 145.133 483.533 145.6C483.867 146 483.967 146.5 483.833 147.1C483.433 148.567 482.967 150.2 482.433 152C481.967 153.8 481.5 155.6 481.033 157.4C480.633 159.2 480.233 160.967 479.833 162.7C479.5 164.433 479.233 165.967 479.033 167.3C478.767 169.3 478.8 170.5 479.133 170.9C479.533 171.3 480.067 171.233 480.733 170.7C481.4 170.1 482.167 169.167 483.033 167.9C483.9 166.633 484.767 165.3 485.633 163.9C486.5 162.433 487.267 161.067 487.933 159.8C488.667 158.533 489.2 157.6 489.533 157ZM483.433 134.6C484.167 134.533 484.833 134.733 485.433 135.2C486.033 135.6 486.367 136.233 486.433 137.1C486.433 138.033 486.167 138.767 485.633 139.3C485.1 139.767 484.467 140.033 483.733 140.1C483.067 140.1 482.433 139.9 481.833 139.5C481.233 139.033 480.933 138.333 480.933 137.4C480.867 136.667 481.067 136.033 481.533 135.5C482.067 134.967 482.7 134.667 483.433 134.6ZM506.712 149.3C507.445 148.7 508.212 148.267 509.012 148C509.879 147.733 510.645 147.667 511.312 147.8C512.045 147.933 512.645 148.3 513.112 148.9C513.579 149.433 513.812 150.3 513.812 151.5C513.812 151.967 513.612 152.8 513.212 154C512.812 155.2 512.312 156.6 511.712 158.2C511.179 159.8 510.579 161.467 509.912 163.2C509.312 164.933 508.779 166.567 508.312 168.1C507.912 169.567 507.645 170.833 507.512 171.9C507.379 172.9 507.512 173.467 507.912 173.6C508.379 173.6 509.079 173 510.012 171.8C511.012 170.533 512.045 169 513.112 167.2C514.179 165.333 515.212 163.367 516.212 161.3C517.279 159.233 518.145 157.367 518.812 155.7C519.012 155.1 519.279 154.733 519.612 154.6C520.012 154.467 520.312 154.533 520.512 154.8C520.779 155 520.912 155.4 520.912 156C520.979 156.6 520.812 157.367 520.412 158.3C519.879 159.5 519.212 160.867 518.412 162.4C517.679 163.933 516.845 165.467 515.912 167C515.045 168.467 514.112 169.9 513.112 171.3C512.112 172.7 511.145 173.867 510.212 174.8C509.012 176 507.912 176.667 506.912 176.8C505.912 176.933 505.079 176.7 504.412 176.1C503.745 175.433 503.245 174.533 502.912 173.4C502.645 172.2 502.579 170.9 502.712 169.5C502.845 168.1 503.212 166.5 503.812 164.7C504.412 162.9 504.979 161.2 505.512 159.6C506.112 157.933 506.579 156.533 506.912 155.4C507.312 154.2 507.345 153.5 507.012 153.3C506.879 153.033 506.479 153.167 505.812 153.7C505.212 154.233 504.412 155.033 503.412 156.1C502.479 157.167 501.445 158.433 500.312 159.9C499.245 161.367 498.112 162.9 496.912 164.5C495.779 166.1 494.679 167.7 493.612 169.3C492.612 170.833 491.745 172.233 491.012 173.5C490.545 174.233 490.045 174.8 489.512 175.2C488.979 175.6 488.445 175.633 487.912 175.3C486.779 174.767 486.112 174 485.912 173C485.645 172 485.679 171.067 486.012 170.2C486.412 169 486.845 167.433 487.312 165.5C487.779 163.5 488.245 161.433 488.712 159.3C489.112 157.167 489.479 155.067 489.812 153C490.212 150.933 490.545 149.2 490.812 147.8C491.145 146.067 491.645 145.067 492.312 144.8C493.045 144.533 493.812 144.5 494.612 144.7C495.345 145.033 495.879 145.433 496.212 145.9C496.612 146.3 496.745 147.167 496.612 148.5C496.545 149.233 496.312 150.333 495.912 151.8C495.579 153.267 495.179 154.833 494.712 156.5C494.245 158.167 493.779 159.833 493.312 161.5C492.845 163.1 492.479 164.4 492.212 165.4C492.879 164.667 493.845 163.533 495.112 162C496.445 160.4 497.845 158.767 499.312 157.1C500.779 155.367 502.179 153.767 503.512 152.3C504.912 150.833 505.979 149.833 506.712 149.3ZM532.014 157C532.68 155.667 533.28 155.1 533.814 155.3C534.414 155.5 534.514 156.133 534.114 157.2C533.247 159.267 532.08 161.533 530.614 164C529.147 166.4 527.714 168.6 526.314 170.6C525.914 171.133 525.447 171.767 524.914 172.5C524.447 173.167 523.914 173.8 523.314 174.4C522.714 175 522.08 175.433 521.414 175.7C520.747 175.967 520.047 175.867 519.314 175.4C517.98 174.667 517.214 173.533 517.014 172C516.747 170.467 516.68 168.933 516.814 167.4C517.014 163.933 517.414 160.567 518.014 157.3C518.614 154.033 519.347 150.8 520.214 147.6C520.547 146.733 520.914 146 521.314 145.4C521.78 144.867 522.314 144.567 522.914 144.5C523.58 144.367 524.18 144.4 524.714 144.6C525.247 144.8 525.68 145.133 526.014 145.6C526.347 146 526.447 146.5 526.314 147.1C525.914 148.567 525.447 150.2 524.914 152C524.447 153.8 523.98 155.6 523.514 157.4C523.114 159.2 522.714 160.967 522.314 162.7C521.98 164.433 521.714 165.967 521.514 167.3C521.247 169.3 521.28 170.5 521.614 170.9C522.014 171.3 522.547 171.233 523.214 170.7C523.88 170.1 524.647 169.167 525.514 167.9C526.38 166.633 527.247 165.3 528.114 163.9C528.98 162.433 529.747 161.067 530.414 159.8C531.147 158.533 531.68 157.6 532.014 157ZM525.914 134.6C526.647 134.533 527.314 134.733 527.914 135.2C528.514 135.6 528.847 136.233 528.914 137.1C528.914 138.033 528.647 138.767 528.114 139.3C527.58 139.767 526.947 140.033 526.214 140.1C525.547 140.1 524.914 139.9 524.314 139.5C523.714 139.033 523.414 138.333 523.414 137.4C523.347 136.667 523.547 136.033 524.014 135.5C524.547 134.967 525.18 134.667 525.914 134.6ZM549.393 158.1C548.859 158.767 548.159 159.533 547.293 160.4C546.493 161.2 545.659 162 544.793 162.8C543.926 163.6 543.059 164.367 542.193 165.1C541.393 165.833 540.759 166.433 540.293 166.9C540.626 171.433 540.093 175.933 538.693 180.4C537.293 184.8 534.993 188.367 531.793 191.1C529.726 192.833 527.793 193.867 525.993 194.2C524.193 194.6 522.759 194.433 521.693 193.7C520.626 192.967 520.059 191.767 519.993 190.1C519.926 188.433 520.659 186.4 522.193 184C522.993 182.733 523.893 181.433 524.893 180.1C525.893 178.767 526.893 177.5 527.893 176.3C528.893 175.1 529.826 174.033 530.693 173.1C531.493 172.1 532.126 171.367 532.593 170.9C533.726 169.833 534.426 168.733 534.693 167.6C535.026 166.467 535.093 165.333 534.893 164.2C534.759 163.067 534.426 161.933 533.893 160.8C533.426 159.667 532.926 158.567 532.393 157.5C531.859 156.367 531.426 155.267 531.093 154.2C530.693 153.133 530.526 152.067 530.593 151C530.659 149.8 531.093 148.733 531.893 147.8C532.693 146.8 533.659 146 534.793 145.4C535.993 144.733 537.259 144.3 538.593 144.1C539.993 143.833 541.326 143.8 542.593 144C543.726 144.267 544.493 144.667 544.893 145.2C545.293 145.733 545.426 146.267 545.293 146.8C545.159 147.267 544.826 147.6 544.293 147.8C543.826 148 543.259 147.867 542.593 147.4C541.659 146.733 540.759 146.433 539.893 146.5C539.093 146.5 538.359 146.733 537.693 147.2C537.093 147.6 536.626 148.167 536.293 148.9C535.959 149.633 535.859 150.4 535.993 151.2C536.126 152.4 536.459 153.633 536.993 154.9C537.526 156.1 538.059 157.367 538.593 158.7C538.926 159.567 539.193 160.467 539.393 161.4C539.593 162.333 539.759 163.267 539.893 164.2C540.359 163.8 540.926 163.3 541.593 162.7C542.326 162.1 543.026 161.467 543.693 160.8C544.426 160.133 545.093 159.467 545.693 158.8C546.359 158.067 546.893 157.367 547.293 156.7C547.759 155.967 548.159 155.567 548.493 155.5C548.893 155.367 549.193 155.433 549.393 155.7C549.659 155.967 549.793 156.333 549.793 156.8C549.793 157.267 549.659 157.7 549.393 158.1ZM534.793 171.8C534.059 172.6 533.226 173.567 532.293 174.7C531.359 175.767 530.393 176.9 529.393 178.1C528.393 179.3 527.459 180.5 526.593 181.7C525.659 182.833 524.893 183.867 524.293 184.8C523.426 186.267 522.926 187.533 522.793 188.6C522.659 189.733 522.793 190.467 523.193 190.8C523.859 191.4 524.859 191.233 526.193 190.3C527.459 189.367 528.726 187.967 529.993 186.1C531.193 184.233 532.259 182.033 533.193 179.5C534.193 176.967 534.726 174.4 534.793 171.8ZM564.725 158.1C564.191 158.767 563.491 159.533 562.625 160.4C561.825 161.2 560.991 162 560.125 162.8C559.258 163.6 558.391 164.367 557.525 165.1C556.725 165.833 556.091 166.433 555.625 166.9C555.958 171.433 555.425 175.933 554.025 180.4C552.625 184.8 550.325 188.367 547.125 191.1C545.058 192.833 543.125 193.867 541.325 194.2C539.525 194.6 538.091 194.433 537.025 193.7C535.958 192.967 535.391 191.767 535.325 190.1C535.258 188.433 535.991 186.4 537.525 184C538.325 182.733 539.225 181.433 540.225 180.1C541.225 178.767 542.225 177.5 543.225 176.3C544.225 175.1 545.158 174.033 546.025 173.1C546.825 172.1 547.458 171.367 547.925 170.9C549.058 169.833 549.758 168.733 550.025 167.6C550.358 166.467 550.425 165.333 550.225 164.2C550.091 163.067 549.758 161.933 549.225 160.8C548.758 159.667 548.258 158.567 547.725 157.5C547.191 156.367 546.758 155.267 546.425 154.2C546.025 153.133 545.858 152.067 545.925 151C545.991 149.8 546.425 148.733 547.225 147.8C548.025 146.8 548.991 146 550.125 145.4C551.325 144.733 552.591 144.3 553.925 144.1C555.325 143.833 556.658 143.8 557.925 144C559.058 144.267 559.825 144.667 560.225 145.2C560.625 145.733 560.758 146.267 560.625 146.8C560.491 147.267 560.158 147.6 559.625 147.8C559.158 148 558.591 147.867 557.925 147.4C556.991 146.733 556.091 146.433 555.225 146.5C554.425 146.5 553.691 146.733 553.025 147.2C552.425 147.6 551.958 148.167 551.625 148.9C551.291 149.633 551.191 150.4 551.325 151.2C551.458 152.4 551.791 153.633 552.325 154.9C552.858 156.1 553.391 157.367 553.925 158.7C554.258 159.567 554.525 160.467 554.725 161.4C554.925 162.333 555.091 163.267 555.225 164.2C555.691 163.8 556.258 163.3 556.925 162.7C557.658 162.1 558.358 161.467 559.025 160.8C559.758 160.133 560.425 159.467 561.025 158.8C561.691 158.067 562.225 157.367 562.625 156.7C563.091 155.967 563.491 155.567 563.825 155.5C564.225 155.367 564.525 155.433 564.725 155.7C564.991 155.967 565.125 156.333 565.125 156.8C565.125 157.267 564.991 157.7 564.725 158.1ZM550.125 171.8C549.391 172.6 548.558 173.567 547.625 174.7C546.691 175.767 545.725 176.9 544.725 178.1C543.725 179.3 542.791 180.5 541.925 181.7C540.991 182.833 540.225 183.867 539.625 184.8C538.758 186.267 538.258 187.533 538.125 188.6C537.991 189.733 538.125 190.467 538.525 190.8C539.191 191.4 540.191 191.233 541.525 190.3C542.791 189.367 544.058 187.967 545.325 186.1C546.525 184.233 547.591 182.033 548.525 179.5C549.525 176.967 550.058 174.4 550.125 171.8ZM588.757 158C587.49 160.8 586.123 163.433 584.657 165.9C583.19 168.3 581.623 170.733 579.957 173.2C579.423 173.933 578.823 174.6 578.157 175.2C577.49 175.8 576.757 176.133 575.957 176.2C574.623 176.2 573.59 175.767 572.857 174.9C572.123 174.033 571.557 173 571.157 171.8C570.823 170.533 570.623 169.267 570.557 168C570.557 166.667 570.59 165.567 570.657 164.7C569.79 166.033 568.957 167.533 568.157 169.2C567.357 170.867 566.49 172.267 565.557 173.4C564.957 174.133 564.29 174.7 563.557 175.1C562.89 175.433 562.157 175.433 561.357 175.1C559.623 174.3 558.757 172.8 558.757 170.6C558.623 168 558.857 165.367 559.457 162.7C560.057 159.967 561.057 157.5 562.457 155.3C563.79 153.1 565.523 151.333 567.657 150C569.79 148.6 572.323 147.933 575.257 148C575.723 147.467 576.157 146.933 576.557 146.4C576.957 145.867 577.357 145.333 577.757 144.8C578.357 144 578.89 143.533 579.357 143.4C579.823 143.2 580.19 143.233 580.457 143.5C580.723 143.767 580.857 144.2 580.857 144.8C580.923 145.4 580.823 146.033 580.557 146.7C579.823 148.433 579.057 150.4 578.257 152.6C577.523 154.733 576.89 156.9 576.357 159.1C575.823 161.3 575.457 163.4 575.257 165.4C575.057 167.333 575.19 168.967 575.657 170.3C576.057 171.7 576.857 171.967 578.057 171.1C578.923 170.367 579.79 169.433 580.657 168.3C581.523 167.1 582.357 165.833 583.157 164.5C583.957 163.167 584.723 161.833 585.457 160.5C586.19 159.167 586.823 158 587.357 157C587.89 156 588.323 155.367 588.657 155.1C588.99 154.767 589.19 154.7 589.257 154.9C589.39 155.1 589.39 155.5 589.257 156.1C589.19 156.633 589.023 157.267 588.757 158ZM563.357 169.1C563.69 170.167 564.257 170.167 565.057 169.1C565.923 168.033 566.857 166.467 567.857 164.4C568.923 162.333 569.99 160.033 571.057 157.5C572.123 154.967 573.057 152.767 573.857 150.9C572.323 151.033 570.89 151.733 569.557 153C568.223 154.267 567.09 155.8 566.157 157.6C565.223 159.4 564.49 161.333 563.957 163.4C563.423 165.467 563.223 167.367 563.357 169.1Z" fill="#4E4E4E"/>
</svg>
